<mxfile host="Electron" modified="2024-06-12T21:26:42.422Z" agent="Mozilla/5.0 (Windows NT 10.0; Win64; x64) AppleWebKit/537.36 (KHTML, like Gecko) draw.io/24.5.1 Chrome/124.0.6367.207 Electron/30.0.6 Safari/537.36" etag="aS-CctxVZztmJyPE6xk1" version="24.5.1" type="device" pages="2">
  <diagram id="15ckcpbVzYFKvHAVCxjc" name="Página-2">
    <mxGraphModel dx="1216" dy="658" grid="1" gridSize="10" guides="1" tooltips="1" connect="1" arrows="1" fold="1" page="1" pageScale="1" pageWidth="827" pageHeight="1169" math="0" shadow="0">
      <root>
        <mxCell id="0" />
        <mxCell id="1" parent="0" />
        <mxCell id="cQypTS-Cdl5yvJiqqlzD-32" value="" style="endArrow=none;dashed=1;html=1;rounded=0;" edge="1" parent="1">
          <mxGeometry width="50" height="50" relative="1" as="geometry">
            <mxPoint x="265.40999999999997" y="678" as="sourcePoint" />
            <mxPoint x="265.40999999999997" y="598" as="targetPoint" />
          </mxGeometry>
        </mxCell>
        <mxCell id="cQypTS-Cdl5yvJiqqlzD-31" value="" style="endArrow=none;dashed=1;html=1;rounded=0;" edge="1" parent="1">
          <mxGeometry width="50" height="50" relative="1" as="geometry">
            <mxPoint x="78.40999999999997" y="680" as="sourcePoint" />
            <mxPoint x="78.40999999999997" y="600" as="targetPoint" />
          </mxGeometry>
        </mxCell>
        <mxCell id="cQypTS-Cdl5yvJiqqlzD-11" value="" style="endArrow=none;dashed=1;html=1;rounded=0;" edge="1" parent="1" source="cQypTS-Cdl5yvJiqqlzD-2">
          <mxGeometry width="50" height="50" relative="1" as="geometry">
            <mxPoint x="78.5" y="260" as="sourcePoint" />
            <mxPoint x="78.5" y="160" as="targetPoint" />
          </mxGeometry>
        </mxCell>
        <mxCell id="9fcotrRJCA72iz3IkRBV-1" value="Usuário não logado" style="shape=umlActor;verticalLabelPosition=bottom;verticalAlign=top;html=1;" vertex="1" parent="1">
          <mxGeometry x="64" y="80" width="30" height="60" as="geometry" />
        </mxCell>
        <mxCell id="cQypTS-Cdl5yvJiqqlzD-4" value="Banco de Dados" style="shape=umlLifeline;perimeter=lifelinePerimeter;whiteSpace=wrap;html=1;container=1;dropTarget=0;collapsible=0;recursiveResize=0;outlineConnect=0;portConstraint=eastwest;newEdgeStyle={&quot;curved&quot;:0,&quot;rounded&quot;:0};" vertex="1" parent="1">
          <mxGeometry x="660" y="80" width="112" height="600" as="geometry" />
        </mxCell>
        <mxCell id="cQypTS-Cdl5yvJiqqlzD-30" value="" style="html=1;points=[[0,0,0,0,5],[0,1,0,0,-5],[1,0,0,0,5],[1,1,0,0,-5]];perimeter=orthogonalPerimeter;outlineConnect=0;targetShapes=umlLifeline;portConstraint=eastwest;newEdgeStyle={&quot;curved&quot;:0,&quot;rounded&quot;:0};" vertex="1" parent="cQypTS-Cdl5yvJiqqlzD-4">
          <mxGeometry x="51" y="170" width="10" height="50" as="geometry" />
        </mxCell>
        <mxCell id="cQypTS-Cdl5yvJiqqlzD-5" value="" style="shape=umlLifeline;perimeter=lifelinePerimeter;whiteSpace=wrap;html=1;container=1;dropTarget=0;collapsible=0;recursiveResize=0;outlineConnect=0;portConstraint=eastwest;newEdgeStyle={&quot;curved&quot;:0,&quot;rounded&quot;:0};participant=umlBoundary;" vertex="1" parent="1">
          <mxGeometry x="240" y="80" width="50" height="580" as="geometry" />
        </mxCell>
        <mxCell id="cQypTS-Cdl5yvJiqqlzD-3" value="" style="html=1;points=[[0,0,0,0,5],[0,1,0,0,-5],[1,0,0,0,5],[1,1,0,0,-5]];perimeter=orthogonalPerimeter;outlineConnect=0;targetShapes=umlLifeline;portConstraint=eastwest;newEdgeStyle={&quot;curved&quot;:0,&quot;rounded&quot;:0};" vertex="1" parent="cQypTS-Cdl5yvJiqqlzD-5">
          <mxGeometry x="20" y="110" width="10" height="470" as="geometry" />
        </mxCell>
        <mxCell id="cQypTS-Cdl5yvJiqqlzD-6" value="" style="shape=umlLifeline;perimeter=lifelinePerimeter;whiteSpace=wrap;html=1;container=1;dropTarget=0;collapsible=0;recursiveResize=0;outlineConnect=0;portConstraint=eastwest;newEdgeStyle={&quot;curved&quot;:0,&quot;rounded&quot;:0};participant=umlControl;size=50;" vertex="1" parent="1">
          <mxGeometry x="460" y="70" width="50" height="610" as="geometry" />
        </mxCell>
        <mxCell id="cQypTS-Cdl5yvJiqqlzD-17" value="" style="html=1;points=[[0,0,0,0,5],[0,1,0,0,-5],[1,0,0,0,5],[1,1,0,0,-5]];perimeter=orthogonalPerimeter;outlineConnect=0;targetShapes=umlLifeline;portConstraint=eastwest;newEdgeStyle={&quot;curved&quot;:0,&quot;rounded&quot;:0};" vertex="1" parent="cQypTS-Cdl5yvJiqqlzD-6">
          <mxGeometry x="20" y="180" width="10" height="50" as="geometry" />
        </mxCell>
        <mxCell id="cQypTS-Cdl5yvJiqqlzD-9" value="ok" style="html=1;verticalAlign=bottom;endArrow=open;dashed=1;endSize=8;curved=0;rounded=0;" edge="1" parent="1">
          <mxGeometry relative="1" as="geometry">
            <mxPoint x="490" y="291.5" as="targetPoint" />
            <mxPoint x="710" y="292" as="sourcePoint" />
          </mxGeometry>
        </mxCell>
        <mxCell id="cQypTS-Cdl5yvJiqqlzD-10" value="Inserir dados" style="html=1;verticalAlign=bottom;endArrow=block;curved=0;rounded=0;" edge="1" parent="1" target="cQypTS-Cdl5yvJiqqlzD-3">
          <mxGeometry relative="1" as="geometry">
            <mxPoint x="85" y="238" as="sourcePoint" />
            <mxPoint x="155" y="238" as="targetPoint" />
          </mxGeometry>
        </mxCell>
        <mxCell id="cQypTS-Cdl5yvJiqqlzD-12" value="" style="endArrow=none;dashed=1;html=1;rounded=0;" edge="1" parent="1" target="cQypTS-Cdl5yvJiqqlzD-2">
          <mxGeometry width="50" height="50" relative="1" as="geometry">
            <mxPoint x="78.5" y="260" as="sourcePoint" />
            <mxPoint x="78.5" y="160" as="targetPoint" />
          </mxGeometry>
        </mxCell>
        <mxCell id="cQypTS-Cdl5yvJiqqlzD-2" value="" style="html=1;points=[[0,0,0,0,5],[0,1,0,0,-5],[1,0,0,0,5],[1,1,0,0,-5]];perimeter=orthogonalPerimeter;outlineConnect=0;targetShapes=umlLifeline;portConstraint=eastwest;newEdgeStyle={&quot;curved&quot;:0,&quot;rounded&quot;:0};" vertex="1" parent="1">
          <mxGeometry x="74" y="180" width="10" height="480" as="geometry" />
        </mxCell>
        <mxCell id="cQypTS-Cdl5yvJiqqlzD-13" value="buscarUsuario(e-mail,senha)" style="html=1;verticalAlign=bottom;endArrow=block;curved=0;rounded=0;" edge="1" parent="1">
          <mxGeometry x="-0.0023" relative="1" as="geometry">
            <mxPoint x="270" y="252.5" as="sourcePoint" />
            <mxPoint x="480" y="253" as="targetPoint" />
            <mxPoint as="offset" />
          </mxGeometry>
        </mxCell>
        <mxCell id="cQypTS-Cdl5yvJiqqlzD-14" value="validarUsuario(e-mail,senha)" style="html=1;verticalAlign=bottom;endArrow=block;curved=0;rounded=0;" edge="1" parent="1">
          <mxGeometry x="-0.0023" relative="1" as="geometry">
            <mxPoint x="490" y="251" as="sourcePoint" />
            <mxPoint x="710" y="251" as="targetPoint" />
            <mxPoint as="offset" />
          </mxGeometry>
        </mxCell>
        <mxCell id="cQypTS-Cdl5yvJiqqlzD-18" value="usuarioExiste: bool" style="html=1;verticalAlign=bottom;endArrow=open;dashed=1;endSize=8;curved=0;rounded=0;exitX=0;exitY=1;exitDx=0;exitDy=-5;" edge="1" parent="1">
          <mxGeometry relative="1" as="geometry">
            <mxPoint x="270" y="300" as="targetPoint" />
            <mxPoint x="480" y="299.5" as="sourcePoint" />
          </mxGeometry>
        </mxCell>
        <mxCell id="cQypTS-Cdl5yvJiqqlzD-19" value="Login realizado com sucesso" style="html=1;verticalAlign=bottom;endArrow=open;dashed=1;endSize=8;curved=0;rounded=0;" edge="1" parent="1">
          <mxGeometry relative="1" as="geometry">
            <mxPoint x="84" y="319" as="targetPoint" />
            <mxPoint x="260" y="319" as="sourcePoint" />
          </mxGeometry>
        </mxCell>
        <mxCell id="cQypTS-Cdl5yvJiqqlzD-20" value="alt" style="shape=umlFrame;whiteSpace=wrap;html=1;pointerEvents=0;" vertex="1" parent="1">
          <mxGeometry x="170" y="330" width="290" height="200" as="geometry" />
        </mxCell>
        <mxCell id="cQypTS-Cdl5yvJiqqlzD-22" value="" style="endArrow=none;dashed=1;html=1;rounded=0;" edge="1" parent="1">
          <mxGeometry width="50" height="50" relative="1" as="geometry">
            <mxPoint x="460" y="439" as="sourcePoint" />
            <mxPoint x="169" y="439" as="targetPoint" />
          </mxGeometry>
        </mxCell>
        <mxCell id="cQypTS-Cdl5yvJiqqlzD-23" value="&lt;font style=&quot;font-size: 9px;&quot;&gt;[if usuario não existe]&lt;/font&gt;" style="text;html=1;align=center;verticalAlign=middle;resizable=0;points=[];autosize=1;strokeColor=none;fillColor=none;" vertex="1" parent="1">
          <mxGeometry x="160" y="356" width="110" height="30" as="geometry" />
        </mxCell>
        <mxCell id="cQypTS-Cdl5yvJiqqlzD-24" value="&lt;font style=&quot;font-size: 9px;&quot;&gt;[else]&lt;/font&gt;" style="text;html=1;align=center;verticalAlign=middle;resizable=0;points=[];autosize=1;strokeColor=none;fillColor=none;" vertex="1" parent="1">
          <mxGeometry x="160" y="433" width="50" height="30" as="geometry" />
        </mxCell>
        <mxCell id="cQypTS-Cdl5yvJiqqlzD-26" value="" style="html=1;points=[[0,0,0,0,5],[0,1,0,0,-5],[1,0,0,0,5],[1,1,0,0,-5]];perimeter=orthogonalPerimeter;outlineConnect=0;targetShapes=umlLifeline;portConstraint=eastwest;newEdgeStyle={&quot;curved&quot;:0,&quot;rounded&quot;:0};" vertex="1" parent="1">
          <mxGeometry x="270" y="370" width="10" height="40" as="geometry" />
        </mxCell>
        <mxCell id="cQypTS-Cdl5yvJiqqlzD-27" value="throw exception&lt;div&gt;&quot;Usuário não cadastrado&quot;&lt;/div&gt;" style="html=1;align=left;spacingLeft=2;endArrow=block;rounded=0;edgeStyle=orthogonalEdgeStyle;curved=0;rounded=0;exitX=1;exitY=0.375;exitDx=0;exitDy=0;exitPerimeter=0;" edge="1" target="cQypTS-Cdl5yvJiqqlzD-26" parent="1" source="cQypTS-Cdl5yvJiqqlzD-3">
          <mxGeometry x="0.0771" y="25" relative="1" as="geometry">
            <mxPoint x="265" y="355" as="sourcePoint" />
            <Array as="points">
              <mxPoint x="295" y="360" />
              <mxPoint x="295" y="385" />
            </Array>
            <mxPoint as="offset" />
          </mxGeometry>
        </mxCell>
        <mxCell id="cQypTS-Cdl5yvJiqqlzD-28" value="&lt;font style=&quot;font-size: 9px;&quot;&gt;Mensagem de erro&lt;/font&gt;" style="html=1;verticalAlign=bottom;endArrow=open;dashed=1;endSize=8;curved=0;rounded=0;" edge="1" parent="1">
          <mxGeometry x="0.3636" relative="1" as="geometry">
            <mxPoint x="260" y="409.66" as="sourcePoint" />
            <mxPoint x="84" y="409.6600000000001" as="targetPoint" />
            <mxPoint as="offset" />
          </mxGeometry>
        </mxCell>
        <mxCell id="cQypTS-Cdl5yvJiqqlzD-29" value="&lt;font style=&quot;font-size: 9px;&quot;&gt;Redirecionamento para a tela do sistema&lt;/font&gt;" style="html=1;verticalAlign=bottom;endArrow=open;dashed=1;endSize=8;curved=0;rounded=0;" edge="1" parent="1">
          <mxGeometry x="-0.0909" relative="1" as="geometry">
            <mxPoint x="258" y="500" as="sourcePoint" />
            <mxPoint x="82" y="500.34000000000003" as="targetPoint" />
            <mxPoint as="offset" />
          </mxGeometry>
        </mxCell>
      </root>
    </mxGraphModel>
  </diagram>
  <diagram id="tPQqQMnUh_uxHrOnkiwM" name="Página-3">
    <mxGraphModel dx="794" dy="559" grid="1" gridSize="10" guides="1" tooltips="1" connect="1" arrows="1" fold="1" page="1" pageScale="1" pageWidth="827" pageHeight="1169" math="0" shadow="0">
      <root>
        <mxCell id="0" />
        <mxCell id="1" parent="0" />
        <mxCell id="fuRZVy_g3fzCpHIGCUpC-1" value=":Object" style="shape=umlLifeline;perimeter=lifelinePerimeter;whiteSpace=wrap;html=1;container=0;collapsible=0;recursiveResize=0;outlineConnect=0;rounded=1;shadow=0;comic=0;labelBackgroundColor=none;strokeWidth=1;fontFamily=Verdana;fontSize=12;align=center;" vertex="1" parent="1">
          <mxGeometry x="190" y="100" width="100" height="580" as="geometry" />
        </mxCell>
        <mxCell id="fuRZVy_g3fzCpHIGCUpC-2" value="" style="html=1;points=[];perimeter=orthogonalPerimeter;rounded=0;shadow=0;comic=0;labelBackgroundColor=none;strokeWidth=1;fontFamily=Verdana;fontSize=12;align=center;" vertex="1" parent="1">
          <mxGeometry x="345" y="160" width="10" height="230" as="geometry" />
        </mxCell>
        <mxCell id="fuRZVy_g3fzCpHIGCUpC-3" value=":Object" style="shape=umlLifeline;perimeter=lifelinePerimeter;whiteSpace=wrap;html=1;container=1;dropTarget=0;collapsible=0;recursiveResize=0;outlineConnect=0;portConstraint=eastwest;newEdgeStyle={&quot;curved&quot;:0,&quot;rounded&quot;:0};" vertex="1" parent="1">
          <mxGeometry x="400" y="80" width="100" height="300" as="geometry" />
        </mxCell>
      </root>
    </mxGraphModel>
  </diagram>
</mxfile>
